<svg width="135" height="135" viewBox="0 0 135 135" fill="none" xmlns="http://www.w3.org/2000/svg">
  <!-- Document paper outline, filling the full 135x135 bounding box to match GitHub and LinkedIn -->
  <path d="M26 12H86L116 42V119C116 122.314 113.314 125 110 125H26C22.6863 125 20 122.314 20 119V18C20 14.6863 22.6863 12 26 12Z" stroke="#FFFFFF" stroke-width="8" stroke-linejoin="round" fill="none"/>
  <!-- Folded corner -->
  <path d="M86 12V42H116" stroke="#FFFFFF" stroke-width="8" stroke-linejoin="round" fill="none"/>
  <!-- Mini Profile Avatar -->
  <circle cx="42" cy="40" r="9" fill="#FFFFFF"/>
  <path d="M30 62C30 55.3726 35.3726 50 42 50C48.6274 50 54 55.3726 54 62" stroke="#FFFFFF" stroke-width="5" stroke-linecap="round"/>
  <!-- Header Title Lines -->
  <line x1="66" y1="39" x2="82" y2="39" stroke="#FFFFFF" stroke-width="6" stroke-linecap="round"/>
  <line x1="66" y1="53" x2="103" y2="53" stroke="#FFFFFF" stroke-width="5" stroke-linecap="round"/>
  <!-- Divider -->
  <line x1="32" y1="74" x2="104" y2="74" stroke="rgba(255,255,255,0.4)" stroke-width="4" stroke-linecap="round"/>
  <!-- Content Resume Lines -->
  <line x1="32" y1="89" x2="104" y2="89" stroke="#FFFFFF" stroke-width="6" stroke-linecap="round"/>
  <line x1="32" y1="103" x2="104" y2="103" stroke="#FFFFFF" stroke-width="6" stroke-linecap="round"/>
  <line x1="32" y1="117" x2="76" y2="117" stroke="#FFFFFF" stroke-width="6" stroke-linecap="round"/>
</svg>
